<?xml version="1.0" encoding="UTF-8" standalone="no"?>
<!DOCTYPE svg PUBLIC "-//W3C//DTD SVG 1.1//EN" "http://www.w3.org/Graphics/SVG/1.1/DTD/svg11.dtd">
<svg width="100%" height="100%" viewBox="0 0 3507 2480" version="1.1" xmlns="http://www.w3.org/2000/svg" xmlns:xlink="http://www.w3.org/1999/xlink" xml:space="preserve" xmlns:serif="http://www.serif.com/" style="fill-rule:evenodd;clip-rule:evenodd;stroke-linejoin:round;stroke-miterlimit:2;">
    <g id="Layer-1" serif:id="Layer 1" transform="matrix(4.16667,0,0,4.16667,0,0)">
        <g transform="matrix(1,0,0,1,134.774,373.384)">
            <path d="M0,-142.706C-1.58,-147.049 -5.899,-149.941 -10.522,-149.941C-15.145,-149.941 -19.275,-147.049 -20.858,-142.706L-67.425,-14.757L-67.437,-14.757L-75.44,7.235L-59.723,7.235C-55.101,7.235 -50.97,4.345 -49.391,0.004L-10.522,-106.794L28.343,0.004C29.925,4.345 34.054,7.235 38.677,7.235L54.587,7.235L0,-142.706Z" style="fill:rgb(78,86,89);fill-rule:nonzero;"/>
        </g>
        <g transform="matrix(1,0,0,1,752.016,174.146)">
            <path d="M0,124.64L-37.151,124.64L-37.151,14.89C-37.151,4.632 -28.835,-3.685 -18.576,-3.685C-8.316,-3.685 0,4.632 0,14.89L0,124.64ZM-74.808,206.472L-92.91,206.472C-103.319,206.472 -111.836,197.955 -111.836,187.546L-111.836,132.273C-111.836,118.837 -118.907,107.043 -129.521,100.374C-137.953,95.076 -143.466,86.208 -143.168,76.253L-143.137,75.208C-142.863,66.035 -137.813,57.787 -129.976,53.012C-119.11,46.391 -111.836,34.438 -111.836,20.805C-111.836,1.998 -125.696,-13.595 -143.73,-16.409L-216.904,-16.409L-216.904,206.472L-254.042,206.472L-254.042,-34.979C-254.042,-45.235 -245.728,-53.549 -235.471,-53.549L-156.505,-53.549C-154.157,-53.549 -149.556,-53.382 -149.556,-53.382C-108.648,-53.382 -75.365,-20.1 -75.365,20.805C-75.365,34.298 -79.002,46.951 -85.316,57.861C-89.394,64.901 -94.595,71.202 -100.664,76.539C-85.168,90.145 -74.808,110.078 -74.808,132.273L-74.808,206.472ZM-18.574,-81.832C-8.319,-81.832 0,-73.516 0,-63.258C0,-53.001 -8.316,-44.684 -18.577,-44.684C-28.832,-44.684 -37.151,-53.001 -37.151,-63.258C-37.151,-73.516 -28.836,-81.832 -18.574,-81.832M-10.231,-108.751L-363.32,-108.751L-295.544,165.215L-280.885,224.47C-279.589,229.709 -274.887,233.391 -269.488,233.391L-10.231,233.391C12.286,233.391 30.54,215.137 30.54,192.619L30.54,-67.98C30.54,-90.497 12.286,-108.751 -10.231,-108.751" style="fill:rgb(247,190,42);fill-rule:nonzero;"/>
        </g>
        <g transform="matrix(1,0,0,1,77.7109,445.427)">
            <path d="M0,5.623L-3.485,-5.042L-6.971,5.623L0,5.623ZM7.671,14.766L3.065,14.766L1.156,9.072L-8.039,9.072L-9.913,14.766L-13.591,14.766L-5.657,-9.143L-0.35,-9.143L7.671,14.766Z" style="fill:rgb(78,86,89);fill-rule:nonzero;"/>
        </g>
        <g transform="matrix(1,0,0,1,102.966,436.284)">
            <path d="M0,23.908L-14.712,23.908L-14.712,0L-10.176,0L-10.176,20.004L0,20.004L0,23.908Z" style="fill:rgb(78,86,89);fill-rule:nonzero;"/>
        </g>
        <g transform="matrix(1,0,0,1,123.738,448.512)">
            <path d="M0,-0.544L0,11.681L-1.909,11.681L-3.223,8.458C-4.612,10.852 -6.766,12.05 -9.685,12.05C-12.943,12.05 -15.375,10.812 -16.979,8.337C-18.586,5.861 -19.388,2.994 -19.388,-0.264C-19.388,-3.708 -18.492,-6.625 -16.699,-9.012C-14.908,-11.4 -12.4,-12.594 -9.177,-12.594C-6.772,-12.594 -4.793,-11.896 -3.24,-10.501C-1.687,-9.105 -0.707,-7.367 -0.298,-5.292L-4.046,-4.624C-4.746,-7.543 -6.422,-9.005 -9.072,-9.005C-10.765,-9.005 -12.146,-8.314 -13.215,-6.936C-14.282,-5.558 -14.817,-3.44 -14.817,-0.579C-14.817,5.457 -12.925,8.477 -9.142,8.477C-7.671,8.477 -6.455,7.968 -5.49,6.952C-4.528,5.936 -4.046,4.594 -4.046,2.924L-8.985,2.924L-8.985,-0.544L0,-0.544Z" style="fill:rgb(78,86,89);fill-rule:nonzero;"/>
        </g>
        <g transform="matrix(1,0,0,1,139.886,445.427)">
            <path d="M0,5.623L-3.485,-5.042L-6.971,5.623L0,5.623ZM7.671,14.766L3.065,14.766L1.156,9.072L-8.039,9.072L-9.913,14.766L-13.591,14.766L-5.657,-9.143L-0.35,-9.143L7.671,14.766Z" style="fill:rgb(78,86,89);fill-rule:nonzero;"/>
        </g>
        <g transform="matrix(1,0,0,1,154.738,449.559)">
            <path d="M0,-2.642L5.359,-2.642C6.912,-2.642 8.068,-2.969 8.827,-3.623C9.586,-4.277 9.965,-5.176 9.965,-6.32C9.965,-7.371 9.592,-8.221 8.845,-8.868C8.097,-9.517 7.052,-9.841 5.709,-9.841L0,-9.841L0,-2.642ZM14.327,10.633L9.773,10.633L6.06,0.807L0,0.807L0,10.633L-4.309,10.633L-4.309,-13.275L6.06,-13.275C8.944,-13.275 11.063,-12.622 12.417,-11.32C13.772,-10.019 14.449,-8.333 14.449,-6.269C14.449,-3.196 13.013,-1.084 10.141,0.074L14.327,10.633Z" style="fill:rgb(78,86,89);fill-rule:nonzero;"/>
        </g>
        <g transform="matrix(1,0,0,1,182.322,436.284)">
            <path d="M0,23.908L-4.378,23.908L-11.752,0L-7.198,0L-1.716,18.322L3.888,0L7.479,0L0,23.908Z" style="fill:rgb(78,86,89);fill-rule:nonzero;"/>
        </g>
        <g transform="matrix(1,0,0,1,208.05,436.284)">
            <path d="M0,23.908L-15.535,23.908L-15.535,0L-0.157,0L-0.157,3.556L-11.226,3.556L-11.226,10.037L-2.329,10.037L-2.329,13.505L-11.226,13.505L-11.226,20.195L0,20.195L0,23.908Z" style="fill:rgb(78,86,89);fill-rule:nonzero;"/>
        </g>
        <g transform="matrix(1,0,0,1,224.811,439.877)">
            <path d="M0,16.724L5.569,16.724C6.749,16.724 7.679,16.416 8.363,15.797C9.045,15.178 9.387,14.342 9.387,13.291C9.387,12.289 9.04,11.465 8.345,10.824C7.65,10.181 6.731,9.859 5.587,9.859L0,9.859L0,16.724ZM0,6.445L5.254,6.445C6.328,6.445 7.177,6.124 7.803,5.483C8.426,4.84 8.739,4.023 8.739,3.031C8.739,1.933 8.383,1.122 7.671,0.605C6.959,0.083 6.124,-0.175 5.167,-0.175L0,-0.175L0,6.445ZM-4.081,20.316L-4.081,-3.592L5.237,-3.592C6.813,-3.592 8.121,-3.426 9.16,-3.101C10.199,-2.772 11.098,-2.09 11.857,-1.051C12.616,-0.012 12.995,1.209 12.995,2.611C12.995,3.93 12.61,5.077 11.839,6.05C11.069,7.026 10.006,7.648 8.652,7.916C10.333,8.207 11.606,8.892 12.47,9.966C13.334,11.04 13.766,12.311 13.766,13.782C13.766,15.629 13.162,17.177 11.953,18.434C10.745,19.688 8.885,20.316 6.375,20.316L-4.081,20.316Z" style="fill:rgb(78,86,89);fill-rule:nonzero;"/>
        </g>
        <g transform="matrix(-1,0,0,1,489.345,301.196)">
            <rect x="242.518" y="135.088" width="4.309" height="23.908" style="fill:rgb(78,86,89);"/>
        </g>
        <g transform="matrix(1,0,0,1,260.925,439.389)">
            <path d="M0,17.702C1.553,17.702 2.867,17.062 3.941,15.778C5.015,14.494 5.552,12.163 5.552,8.789C5.552,6.045 5.108,3.894 4.221,2.335C3.333,0.777 1.956,-0.003 0.088,-0.003C-3.602,-0.003 -5.447,2.97 -5.447,8.913C-5.447,11.797 -4.978,13.982 -4.036,15.47C-3.098,16.96 -1.751,17.702 0,17.702M-0.035,21.173C-3.211,21.173 -5.683,19.981 -7.453,17.599C-9.221,15.218 -10.105,12.275 -10.105,8.772C-10.105,5.293 -9.166,2.381 -7.286,0.041C-5.406,-2.301 -2.925,-3.471 0.158,-3.471C3.264,-3.471 5.718,-2.301 7.523,0.041C9.326,2.381 10.229,5.309 10.229,8.824C10.229,12.514 9.291,15.493 7.418,17.765C5.542,20.035 3.059,21.173 -0.035,21.173" style="fill:rgb(78,86,89);fill-rule:nonzero;"/>
        </g>
        <g transform="matrix(1,0,0,1,298.616,436.284)">
            <path d="M0,23.908L-4.396,23.908L-4.396,2.98L-11.017,23.908L-13.276,23.908L-19.931,2.98L-19.931,23.908L-23.452,23.908L-23.452,0L-16.708,0L-11.7,15.396L-6.778,0L0,0L0,23.908Z" style="fill:rgb(78,86,89);fill-rule:nonzero;"/>
        </g>
        <g transform="matrix(1,0,0,1,319.422,436.284)">
            <path d="M0,23.908L-15.535,23.908L-15.535,0L-0.158,0L-0.158,3.556L-11.227,3.556L-11.227,10.037L-2.33,10.037L-2.33,13.505L-11.227,13.505L-11.227,20.195L0,20.195L0,23.908Z" style="fill:rgb(78,86,89);fill-rule:nonzero;"/>
        </g>
        <g transform="matrix(1,0,0,1,327.444,439.805)">
            <path d="M0,16.866L3.59,16.866C5.517,16.866 7.151,16.144 8.494,14.694C9.837,13.249 10.508,11.094 10.508,8.233C10.508,5.897 9.922,3.922 8.748,2.303C7.575,0.687 6.025,-0.12 4.098,-0.12L0,-0.12L0,16.866ZM-4.431,20.387L-4.431,-3.521L4.378,-3.521C7.636,-3.521 10.251,-2.366 12.225,-0.06C14.198,2.245 15.185,5.092 15.185,8.478C15.185,11.864 14.169,14.694 12.137,16.973C10.105,19.248 7.198,20.387 3.415,20.387L-4.431,20.387Z" style="fill:rgb(78,86,89);fill-rule:nonzero;"/>
        </g>
        <g transform="matrix(-1,0,0,1,697.551,301.196)">
            <rect x="346.621" y="135.088" width="4.309" height="23.908" style="fill:rgb(78,86,89);"/>
        </g>
        <g transform="matrix(1,0,0,1,369.547,444.589)">
            <path d="M0,7.302L3.993,7.739C3.736,10.135 2.811,12.104 1.218,13.652C-0.377,15.198 -2.469,15.973 -5.062,15.973C-7.245,15.973 -9.017,15.424 -10.376,14.324C-11.738,13.229 -12.785,11.739 -13.521,9.86C-14.256,7.98 -14.624,5.908 -14.624,3.643C-14.624,0 -13.76,-2.964 -12.032,-5.247C-10.304,-7.529 -7.928,-8.671 -4.904,-8.671C-2.534,-8.671 -0.561,-7.94 1.016,-6.482C2.592,-5.02 3.584,-2.93 3.993,-0.21L0,0.21C-0.735,-3.4 -2.358,-5.203 -4.869,-5.203C-6.48,-5.203 -7.733,-4.453 -8.625,-2.952C-9.52,-1.453 -9.965,0.724 -9.965,3.573C-9.965,6.468 -9.487,8.655 -8.529,10.13C-7.572,11.609 -6.305,12.346 -4.729,12.346C-3.468,12.346 -2.394,11.851 -1.506,10.859C-0.619,9.866 -0.117,8.68 0,7.302" style="fill:rgb(78,86,89);fill-rule:nonzero;"/>
        </g>
        <g transform="matrix(1,0,0,1,387.867,445.427)">
            <path d="M0,5.623L-3.485,-5.042L-6.971,5.623L0,5.623ZM7.671,14.766L3.065,14.766L1.156,9.072L-8.039,9.072L-9.913,14.766L-13.591,14.766L-5.657,-9.143L-0.35,-9.143L7.671,14.766Z" style="fill:rgb(78,86,89);fill-rule:nonzero;"/>
        </g>
        <g transform="matrix(1,0,0,1,413.123,436.284)">
            <path d="M0,23.908L-14.712,23.908L-14.712,0L-10.176,0L-10.176,20.004L0,20.004L0,23.908Z" style="fill:rgb(78,86,89);fill-rule:nonzero;"/>
        </g>
        <g transform="matrix(1,0,0,1,438.623,444.589)">
            <path d="M0,7.302L3.993,7.739C3.736,10.135 2.811,12.104 1.218,13.652C-0.377,15.198 -2.47,15.973 -5.062,15.973C-7.245,15.973 -9.018,15.424 -10.377,14.324C-11.738,13.229 -12.785,11.739 -13.521,9.86C-14.257,7.98 -14.624,5.908 -14.624,3.643C-14.624,0 -13.761,-2.964 -12.032,-5.247C-10.305,-7.529 -7.928,-8.671 -4.904,-8.671C-2.534,-8.671 -0.561,-7.94 1.016,-6.482C2.592,-5.02 3.584,-2.93 3.993,-0.21L0,0.21C-0.735,-3.4 -2.358,-5.203 -4.869,-5.203C-6.48,-5.203 -7.733,-4.453 -8.625,-2.952C-9.52,-1.453 -9.966,0.724 -9.966,3.573C-9.966,6.468 -9.487,8.655 -8.529,10.13C-7.572,11.609 -6.306,12.346 -4.729,12.346C-3.468,12.346 -2.394,11.851 -1.507,10.859C-0.619,9.866 -0.117,8.68 0,7.302" style="fill:rgb(78,86,89);fill-rule:nonzero;"/>
        </g>
        <g transform="matrix(1,0,0,1,461.568,436.284)">
            <path d="M0,23.908L-15.537,23.908L-15.537,0L-0.158,0L-0.158,3.556L-11.229,3.556L-11.229,10.037L-2.33,10.037L-2.33,13.505L-11.229,13.505L-11.229,20.195L0,20.195L0,23.908Z" style="fill:rgb(78,86,89);fill-rule:nonzero;"/>
        </g>
        <g transform="matrix(1,0,0,1,483.338,436.284)">
            <path d="M0,23.908L-4.187,23.908L-13.26,8.636C-13.399,8.402 -13.629,8.024 -13.941,7.496C-14.082,7.265 -14.299,6.896 -14.591,6.394L-14.591,23.908L-18.059,23.908L-18.059,0L-13.295,0L-4.923,14.082C-4.854,14.201 -4.344,15.057 -3.4,16.657L-3.4,0L0,0L0,23.908Z" style="fill:rgb(78,86,89);fill-rule:nonzero;"/>
        </g>
        <g transform="matrix(1,0,0,1,496.942,436.284)">
            <path d="M0,23.908L-4.624,23.908L-4.624,3.697L-10.98,3.697L-10.98,0L6.358,0L6.358,3.697L0,3.697L0,23.908Z" style="fill:rgb(78,86,89);fill-rule:nonzero;"/>
        </g>
        <g transform="matrix(1,0,0,1,521.462,436.284)">
            <path d="M0,23.908L-15.536,23.908L-15.536,0L-0.159,0L-0.159,3.556L-11.228,3.556L-11.228,10.037L-2.33,10.037L-2.33,13.505L-11.228,13.505L-11.228,20.195L0,20.195L0,23.908Z" style="fill:rgb(78,86,89);fill-rule:nonzero;"/>
        </g>
        <g transform="matrix(1,0,0,1,529.485,449.559)">
            <path d="M0,-2.642L5.359,-2.642C6.913,-2.642 8.068,-2.969 8.827,-3.623C9.587,-4.277 9.967,-5.176 9.967,-6.32C9.967,-7.371 9.591,-8.221 8.846,-8.868C8.097,-9.517 7.053,-9.841 5.71,-9.841L0,-9.841L0,-2.642ZM14.327,10.633L9.773,10.633L6.061,0.807L0,0.807L0,10.633L-4.308,10.633L-4.308,-13.275L6.061,-13.275C8.944,-13.275 11.063,-12.622 12.419,-11.32C13.771,-10.019 14.45,-8.333 14.45,-6.269C14.45,-3.196 13.012,-1.084 10.14,0.074L14.327,10.633Z" style="fill:rgb(78,86,89);fill-rule:nonzero;"/>
        </g>
        <g transform="matrix(1,0,0,1,73.5063,506.419)">
            <path d="M0,-5.641L11.433,-5.641C14.746,-5.641 17.212,-6.337 18.831,-7.734C20.45,-9.127 21.26,-11.044 21.26,-13.488C21.26,-15.729 20.462,-17.541 18.869,-18.923C17.273,-20.306 15.044,-20.997 12.181,-20.997L0,-20.997L0,-5.641ZM30.563,22.68L20.849,22.68L12.928,1.719L0,1.719L0,22.68L-9.191,22.68L-9.191,-28.321L12.928,-28.321C19.08,-28.321 23.601,-26.931 26.491,-24.155C29.379,-21.375 30.825,-17.785 30.825,-13.375C30.825,-6.823 27.761,-2.316 21.633,0.15L30.563,22.68Z" style="fill:rgb(78,86,89);fill-rule:nonzero;"/>
        </g>
        <g transform="matrix(1,0,0,1,146.626,478.099)">
            <path d="M0,51.001L-33.141,51.001L-33.141,0L-0.336,0L-0.336,7.585L-23.95,7.585L-23.95,21.409L-4.969,21.409L-4.969,28.808L-23.95,28.808L-23.95,43.08L0,43.08L0,51.001Z" style="fill:rgb(78,86,89);fill-rule:nonzero;"/>
        </g>
        <g transform="matrix(1,0,0,1,149.205,490.392)">
            <path d="M0,26.416L8.93,24.51C10,29.568 14.11,32.095 21.26,32.095C24.522,32.095 27.032,31.448 28.788,30.152C30.544,28.858 31.422,27.252 31.422,25.332C31.422,23.937 31.023,22.648 30.227,21.465C29.429,20.283 27.724,19.354 25.108,18.682L15.356,16.141C12.018,15.27 9.552,14.279 7.958,13.17C6.363,12.063 5.087,10.499 4.128,8.481C3.169,6.464 2.69,4.311 2.69,2.018C2.69,-2.541 4.383,-6.195 7.771,-8.949C11.159,-11.699 15.493,-13.077 20.774,-13.077C25.157,-13.077 29.074,-12.117 32.524,-10.2C35.974,-8.281 38.172,-5.567 39.119,-2.056L30.376,0.111C29.031,-3.748 25.893,-5.68 20.96,-5.68C18.095,-5.68 15.91,-5.082 14.403,-3.886C12.896,-2.69 12.143,-1.17 12.143,0.672C12.143,3.587 14.508,5.63 19.242,6.8L27.91,8.967C33.166,10.289 36.69,12.236 38.484,14.814C40.277,17.393 41.174,20.239 41.174,23.352C41.174,28.358 39.288,32.301 35.514,35.178C31.74,38.055 26.851,39.493 20.849,39.493C15.792,39.493 11.364,38.435 7.566,36.316C3.767,34.201 1.245,30.899 0,26.416" style="fill:rgb(78,86,89);fill-rule:nonzero;"/>
        </g>
        <g transform="matrix(1,0,0,1,231.404,478.099)">
            <path d="M0,51.001L-33.141,51.001L-33.141,0L-0.336,0L-0.336,7.585L-23.95,7.585L-23.95,21.409L-4.969,21.409L-4.969,28.808L-23.95,28.808L-23.95,43.08L0,43.08L0,51.001Z" style="fill:rgb(78,86,89);fill-rule:nonzero;"/>
        </g>
        <g transform="matrix(1,0,0,1,262.976,497.603)">
            <path d="M0,11.993L-7.435,-10.761L-14.871,11.993L0,11.993ZM16.365,31.497L6.539,31.497L2.466,19.354L-17.149,19.354L-21.147,31.497L-28.994,31.497L-12.068,-19.504L-0.747,-19.504L16.365,31.497Z" style="fill:rgb(78,86,89);fill-rule:nonzero;"/>
        </g>
        <g transform="matrix(1,0,0,1,294.66,506.419)">
            <path d="M0,-5.641L11.433,-5.641C14.746,-5.641 17.212,-6.337 18.831,-7.734C20.45,-9.127 21.26,-11.044 21.26,-13.488C21.26,-15.729 20.462,-17.541 18.869,-18.923C17.273,-20.306 15.044,-20.997 12.181,-20.997L0,-20.997L0,-5.641ZM30.563,22.68L20.849,22.68L12.928,1.719L0,1.719L0,22.68L-9.191,22.68L-9.191,-28.321L12.928,-28.321C19.08,-28.321 23.601,-26.931 26.491,-24.155C29.379,-21.375 30.825,-17.785 30.825,-13.375C30.825,-6.823 27.761,-2.316 21.633,0.15L30.563,22.68Z" style="fill:rgb(78,86,89);fill-rule:nonzero;"/>
        </g>
        <g transform="matrix(1,0,0,1,362.623,495.81)">
            <path d="M0,15.58L8.519,16.514C7.97,21.621 5.997,25.824 2.597,29.124C-0.803,32.426 -5.268,34.075 -10.798,34.075C-15.457,34.075 -19.236,32.905 -22.138,30.562C-25.041,28.223 -27.275,25.047 -28.844,21.035C-30.414,17.025 -31.198,12.604 -31.198,7.771C-31.198,-0.001 -29.356,-6.319 -25.668,-11.191C-21.982,-16.06 -16.914,-18.495 -10.461,-18.495C-5.406,-18.495 -1.195,-16.938 2.167,-13.825C5.53,-10.71 7.646,-6.252 8.519,-0.449L0,0.448C-1.569,-7.249 -5.032,-11.098 -10.387,-11.098C-13.824,-11.098 -16.496,-9.495 -18.401,-6.296C-20.307,-3.095 -21.26,1.545 -21.26,7.621C-21.26,13.801 -20.239,18.464 -18.196,21.614C-16.154,24.767 -13.451,26.341 -10.088,26.341C-7.398,26.341 -5.107,25.282 -3.213,23.165C-1.32,21.049 -0.25,18.519 0,15.58" style="fill:rgb(78,86,89);fill-rule:nonzero;"/>
        </g>
        <g transform="matrix(1,0,0,1,416.277,478.099)">
            <path d="M0,51.001L-9.191,51.001L-9.191,28.845L-28.658,28.845L-28.658,51.001L-37.849,51.001L-37.849,0L-28.658,0L-28.658,20.961L-9.191,20.961L-9.191,0L0,0L0,51.001Z" style="fill:rgb(78,86,89);fill-rule:nonzero;"/>
        </g>
        <g transform="matrix(-1,0,0,1,902.425,411.919)">
            <rect x="446.617" y="66.18" width="9.191" height="51.001" style="fill:rgb(78,86,89);"/>
        </g>
        <g transform="matrix(1,0,0,1,505.538,478.099)">
            <path d="M0,51.001L-8.93,51.001L-28.284,18.42C-28.583,17.923 -29.068,17.112 -29.741,15.991C-30.04,15.494 -30.502,14.71 -31.123,13.638L-31.123,51.001L-38.521,51.001L-38.521,0L-28.358,0L-10.499,30.04C-10.35,30.29 -9.266,32.121 -7.248,35.532L-7.248,0L0,0L0,51.001Z" style="fill:rgb(78,86,89);fill-rule:nonzero;"/>
        </g>
        <g transform="matrix(1,0,0,1,511.404,490.392)">
            <path d="M0,26.416L8.93,24.51C9.999,29.568 14.109,32.095 21.26,32.095C24.521,32.095 27.032,31.448 28.788,30.152C30.545,28.858 31.423,27.252 31.423,25.332C31.423,23.937 31.023,22.648 30.227,21.465C29.429,20.283 27.724,19.354 25.108,18.682L15.356,16.141C12.017,15.27 9.551,14.279 7.958,13.17C6.363,12.063 5.086,10.499 4.129,8.481C3.169,6.464 2.69,4.311 2.69,2.018C2.69,-2.541 4.383,-6.195 7.771,-8.949C11.157,-11.699 15.492,-13.077 20.774,-13.077C25.157,-13.077 29.073,-12.117 32.524,-10.2C35.974,-8.281 38.171,-5.567 39.119,-2.056L30.376,0.111C29.031,-3.748 25.893,-5.68 20.961,-5.68C18.096,-5.68 15.91,-5.082 14.403,-3.886C12.895,-2.69 12.143,-1.17 12.143,0.672C12.143,3.587 14.509,5.63 19.242,6.8L27.91,8.967C33.165,10.289 36.69,12.236 38.484,14.814C40.277,17.393 41.174,20.239 41.174,23.352C41.174,28.358 39.287,32.301 35.514,35.178C31.74,38.055 26.851,39.493 20.849,39.493C15.791,39.493 11.363,38.435 7.566,36.316C3.767,34.201 1.244,30.899 0,26.416" style="fill:rgb(78,86,89);fill-rule:nonzero;"/>
        </g>
        <g transform="matrix(1,0,0,1,578.284,478.099)">
            <path d="M0,51.001L-9.863,51.001L-9.863,7.884L-23.427,7.884L-23.427,0L13.563,0L13.563,7.884L0,7.884L0,51.001Z" style="fill:rgb(78,86,89);fill-rule:nonzero;"/>
        </g>
        <g transform="matrix(-1,0,0,1,1204.1,411.919)">
            <rect x="597.453" y="66.18" width="9.191" height="51.001" style="fill:rgb(78,86,89);"/>
        </g>
        <g transform="matrix(1,0,0,1,635.676,478.099)">
            <path d="M0,51.001L-9.864,51.001L-9.864,7.884L-23.427,7.884L-23.427,0L13.563,0L13.563,7.884L0,7.884L0,51.001Z" style="fill:rgb(78,86,89);fill-rule:nonzero;"/>
        </g>
        <g transform="matrix(1,0,0,1,689.852,529.885)">
            <path d="M0,-51.786L0,-19.018C0,-14.584 -0.5,-11.172 -1.494,-8.781C-2.491,-6.39 -4.416,-4.327 -7.268,-2.598C-10.121,-0.864 -13.601,0 -17.71,0C-21.871,0 -25.29,-0.748 -27.967,-2.242C-30.645,-3.736 -32.569,-5.785 -33.739,-8.389C-34.911,-10.99 -35.495,-14.31 -35.495,-18.346L-35.495,-51.786L-26.117,-51.786L-26.117,-19.018C-26.117,-14.535 -25.178,-11.588 -23.296,-10.182C-21.416,-8.773 -19.23,-8.071 -16.738,-8.071C-13.876,-8.071 -11.583,-8.823 -9.864,-10.331C-8.146,-11.838 -7.286,-14.733 -7.286,-19.018L-7.286,-51.786L0,-51.786Z" style="fill:rgb(78,86,89);fill-rule:nonzero;"/>
        </g>
        <g transform="matrix(1,0,0,1,718.174,478.099)">
            <path d="M0,51.001L-9.864,51.001L-9.864,7.884L-23.427,7.884L-23.427,0L13.563,0L13.563,7.884L0,7.884L0,51.001Z" style="fill:rgb(78,86,89);fill-rule:nonzero;"/>
        </g>
        <g transform="matrix(1,0,0,1,770.482,478.099)">
            <path d="M0,51.001L-33.142,51.001L-33.142,0L-0.336,0L-0.336,7.585L-23.95,7.585L-23.95,21.409L-4.969,21.409L-4.969,28.808L-23.95,28.808L-23.95,43.08L0,43.08L0,51.001Z" style="fill:rgb(78,86,89);fill-rule:nonzero;"/>
        </g>
        <g transform="matrix(1,0,0,1,281.117,306.557)">
            <path d="M0,-9.053C-0.023,-9.076 -0.049,-9.101 -0.07,-9.131C2.352,-15.417 3.61,-22.146 3.61,-28.953C3.61,-58.818 -20.179,-83.115 -49.421,-83.115L-97.405,-83.115C-103.476,-83.115 -108.398,-78.088 -108.398,-71.888L-108.398,-10.098L-86.412,50.292L-86.412,-60.658L-49.421,-60.658C-32.301,-60.658 -18.376,-46.435 -18.376,-28.953C-18.376,-23.385 -19.812,-17.906 -22.533,-13.104C-24.507,-9.623 -24.507,-5.332 -22.533,-1.852C-20.825,1.157 -18.456,3.708 -15.942,6.41C-10.959,11.767 -7.436,15.95 -7.436,21.015C-7.436,38.168 -21.072,51.607 -38.483,51.607L-85.934,51.607L-79.397,69.562L-77.759,74.062L-38.483,74.062C-8.744,74.062 14.548,50.763 14.548,21.015C14.548,6.596 5.792,-2.822 0,-9.053" style="fill:rgb(247,190,42);fill-rule:nonzero;"/>
        </g>
        <g transform="matrix(1,0,0,1,437.815,268.818)">
            <path d="M0,66.425C-5.055,62.379 -12.44,63.198 -16.49,68.257C-25.133,79.06 -37.256,85.942 -50.513,87.807C-52.92,88.145 -55.36,88.337 -57.826,88.337C-87.305,88.337 -111.289,63.729 -111.289,33.479C-111.289,33.389 -111.283,33.303 -111.283,33.215C-111.283,33.126 -111.289,33.036 -111.289,32.95C-111.289,2.698 -87.305,-21.912 -57.826,-21.912C-55.36,-21.912 -52.92,-21.719 -50.513,-21.381C-37.256,-19.513 -25.133,-12.629 -16.49,-1.832C-15.245,-0.276 -13.667,0.826 -11.957,1.562L-21.228,-35.911C-21.937,-36.302 -22.64,-36.704 -23.36,-37.072C-33.86,-42.435 -45.547,-45.342 -57.652,-45.37C-57.714,-45.37 -57.77,-45.376 -57.826,-45.376C-57.869,-45.376 -57.906,-45.372 -57.947,-45.372L-58.434,-45.376C-83.228,-45.376 -105.049,-33.226 -118.943,-14.544C-119.154,-14.256 -119.378,-13.982 -119.585,-13.693C-119.757,-13.459 -119.915,-13.217 -120.083,-12.98C-129.298,-0.067 -134.756,15.8 -134.756,32.95C-134.756,33.036 -134.75,33.126 -134.75,33.215C-134.75,33.303 -134.756,33.389 -134.756,33.479C-134.756,50.625 -129.298,66.491 -120.083,79.408C-119.915,79.642 -119.757,79.886 -119.585,80.121C-119.378,80.408 -119.154,80.689 -118.943,80.972C-105.049,99.656 -83.228,111.801 -58.434,111.801L-57.947,111.799L-57.652,111.799C-45.547,111.771 -33.86,108.863 -23.36,103.498C-13.768,98.601 -5.161,91.658 1.833,82.918C5.882,77.858 5.062,70.474 0,66.425" style="fill:rgb(78,86,89);fill-rule:nonzero;"/>
        </g>
    </g>
</svg>
